<svg width="212" height="33" viewBox="0 0 212 33" fill="none" xmlns="http://www.w3.org/2000/svg">
    <path
        d="M33.0114 24.273C32.803 23.5463 32.4439 22.8716 31.9577 22.2927C31.4714 21.7139 30.8687 21.2438 30.1889 20.9131C30.247 20.3902 30.2758 19.8644 30.2753 19.3383C30.2733 16.6749 29.4937 14.07 28.0323 11.8433C26.5709 9.61657 24.4912 7.86497 22.0484 6.80341C22.0999 6.05892 21.9977 5.3118 21.7482 4.60848C21.4987 3.90516 21.1072 3.26068 20.598 2.71509C20.0889 2.1695 19.4729 1.73446 18.7885 1.43702C18.1041 1.13958 17.3658 0.986084 16.6195 0.986084C15.8732 0.986084 15.135 1.13958 14.4505 1.43702C13.7661 1.73446 13.1502 2.1695 12.641 2.71509C12.1318 3.26068 11.7403 3.90516 11.4908 4.60848C11.2413 5.3118 11.1391 6.05892 11.1906 6.80341C8.74664 7.86437 6.66545 9.61554 5.20228 11.8421C3.73912 14.0688 2.95761 16.674 2.9536 19.3383C2.95311 19.8644 2.98197 20.3902 3.04005 20.9131C2.37257 21.2423 1.77981 21.7051 1.29847 22.2727C0.81714 22.8403 0.457494 23.5008 0.241815 24.2131C0.0261366 24.9254 -0.0409795 25.6744 0.0446248 26.4137C0.130229 27.153 0.366731 27.8669 0.739477 28.5111C1.11222 29.1552 1.61327 29.716 2.21159 30.1586C2.8099 30.6013 3.49273 30.9163 4.21777 31.0843C4.94282 31.2523 5.69463 31.2696 6.42663 31.1351C7.15863 31.0007 7.85523 30.7174 8.47328 30.3027H8.48336C10.8344 32.054 13.6879 33 16.6195 33C19.5512 33 22.4046 32.054 24.7557 30.3027C25.6826 30.9251 26.7787 31.2471 27.895 31.225C29.0113 31.2029 30.0937 30.8378 30.9953 30.1793C31.897 29.5208 32.5741 28.6007 32.9348 27.5441C33.2955 26.4874 33.3222 25.3454 33.0114 24.273ZM26.2728 20.5587C25.407 20.8116 24.6174 21.2751 23.9747 21.908C23.332 22.5408 22.8561 23.323 22.5898 24.1848C22.3234 25.0465 22.2748 25.9609 22.4484 26.846C22.6219 27.7311 23.0122 28.5594 23.5843 29.2567C21.5422 30.6946 19.1053 31.4655 16.6078 31.4637C14.1103 31.4619 11.6745 30.6874 9.63455 29.2466C10.1632 28.6254 10.5383 27.8885 10.7296 27.0955C11.0753 25.694 10.8509 24.2125 10.1057 22.9762C9.36045 21.7399 8.1552 20.8498 6.75441 20.501C6.03191 20.3243 5.28122 20.2949 4.54712 20.4146C4.50826 20.0571 4.48902 19.6978 4.48948 19.3383C4.49056 17.027 5.15267 14.7642 6.3977 12.8169C7.64274 10.8695 9.41875 9.31891 11.5162 8.34794C11.7932 9.11773 12.2473 9.81164 12.8418 10.3737C13.3573 10.8693 13.9654 11.2585 14.6314 11.5191C15.2974 11.7796 16.0082 11.9065 16.7232 11.8923C17.4382 11.8781 18.1434 11.7232 18.7985 11.4364C19.4536 11.1497 20.0459 10.7366 20.5414 10.221C21.0594 9.68609 21.4585 9.04781 21.7127 8.34794C23.8097 9.32001 25.5851 10.8711 26.83 12.8185C28.0749 14.7659 28.7374 17.0284 28.7395 19.3397C28.7399 19.6993 28.7207 20.0586 28.6818 20.416C27.8781 20.2865 27.0557 20.3352 26.2728 20.5587Z"
        fill="white" />
    <path d="M59.8564 26.5235H47.0261V7.4834H50.8356V22.714H63.6658L59.8564 26.5235Z" fill="white" />
    <path d="M77.3405 7.4834V26.5235H73.531V7.4834H77.3405Z" fill="white" />
    <path
        d="M89.7365 7.4834H105.628L101.82 11.2856H97.354V26.5235H93.5459V11.2856H85.9285L89.7365 7.4834Z"
        fill="white" />
    <path
        d="M118.026 7.4834V15.0951H129.453V7.4834H133.263V26.5235H129.453V18.9046H118.026V26.5235H114.217V7.4834H118.026Z"
        fill="white" />
    <path d="M149.567 7.4834V26.5235H145.757V7.4834H149.567Z" fill="white" />
    <path d="M165.87 7.4834V22.714H177.297V7.4834H181.108V26.5235H162.061V7.4834H165.87Z"
        fill="white" />
    <path
        d="M192.403 26.5235V7.4834H211.448V26.5235H207.64V11.2856H203.83V26.5235H200.021V11.2856H196.211V26.5235H192.403Z"
        fill="white" />
</svg>
    